<?xml version="1.0" encoding="utf-8" standalone="no"?>
<!DOCTYPE svg PUBLIC "-//W3C//DTD SVG 1.1//EN"
  "http://www.w3.org/Graphics/SVG/1.1/DTD/svg11.dtd">
<svg xmlns:xlink="http://www.w3.org/1999/xlink" width="576pt" height="360pt" viewBox="0 0 576 360" xmlns="http://www.w3.org/2000/svg" version="1.1">
 <metadata>
  <rdf:RDF xmlns:dc="http://purl.org/dc/elements/1.1/" xmlns:cc="http://creativecommons.org/ns#" xmlns:rdf="http://www.w3.org/1999/02/22-rdf-syntax-ns#">
   <cc:Work>
    <dc:type rdf:resource="http://purl.org/dc/dcmitype/StillImage"/>
    <dc:date>2022-10-25T20:56:47.477154</dc:date>
    <dc:format>image/svg+xml</dc:format>
    <dc:creator>
     <cc:Agent>
      <dc:title>Matplotlib v3.5.1, https://matplotlib.org/</dc:title>
     </cc:Agent>
    </dc:creator>
   </cc:Work>
  </rdf:RDF>
 </metadata>
 <defs>
  <style type="text/css">*{stroke-linejoin: round; stroke-linecap: butt}</style>
 </defs>
 <g id="figure_1">
  <g id="patch_1">
   <path d="M 0 360 
L 576 360 
L 576 0 
L 0 0 
z
" style="fill: #ffffff"/>
  </g>
  <g id="axes_1">
   <g id="patch_2">
    <path d="M 72 320.4 
L 518.4 320.4 
L 518.4 43.2 
L 72 43.2 
z
" style="fill: #ffffff"/>
   </g>
   <g id="patch_3">
    <path d="M 78.2 320.4 
L 115.4 320.4 
L 115.4 203.1444 
L 78.2 203.1444 
z
" clip-path="url(#p0d0f32581b)" style="fill: #7092b7"/>
   </g>
   <g id="patch_4">
    <path d="M 127.8 320.4 
L 165 320.4 
L 165 223.9344 
L 127.8 223.9344 
z
" clip-path="url(#p0d0f32581b)" style="fill: #7092b7"/>
   </g>
   <g id="patch_5">
    <path d="M 177.4 320.4 
L 214.6 320.4 
L 214.6 203.5602 
L 177.4 203.5602 
z
" clip-path="url(#p0d0f32581b)" style="fill: #7092b7"/>
   </g>
   <g id="patch_6">
    <path d="M 227 320.4 
L 264.2 320.4 
L 264.2 212.5692 
L 227 212.5692 
z
" clip-path="url(#p0d0f32581b)" style="fill: #7092b7"/>
   </g>
   <g id="patch_7">
    <path d="M 276.6 320.4 
L 313.8 320.4 
L 313.8 235.9926 
L 276.6 235.9926 
z
" clip-path="url(#p0d0f32581b)" style="fill: #7092b7"/>
   </g>
   <g id="patch_8">
    <path d="M 326.2 320.4 
L 363.4 320.4 
L 363.4 142.992 
L 326.2 142.992 
z
" clip-path="url(#p0d0f32581b)" style="fill: #7092b7"/>
   </g>
   <g id="patch_9">
    <path d="M 375.8 320.4 
L 413 320.4 
L 413 91.9872 
L 375.8 91.9872 
z
" clip-path="url(#p0d0f32581b)" style="fill: #7092b7"/>
   </g>
   <g id="patch_10">
    <path d="M 425.4 320.4 
L 462.6 320.4 
L 462.6 158.3766 
L 425.4 158.3766 
z
" clip-path="url(#p0d0f32581b)" style="fill: #7092b7"/>
   </g>
   <g id="patch_11">
    <path d="M 475 320.4 
L 512.2 320.4 
L 512.2 124.0038 
L 475 124.0038 
z
" clip-path="url(#p0d0f32581b)" style="fill: #7092b7"/>
   </g>
   <g id="matplotlib.axis_1">
    <g id="xtick_1">
     <g id="line2d_1">
      <defs>
       <path id="md0311dbd40" d="M 0 0 
L 0 5 
" style="stroke: #000000; stroke-width: 0.8"/>
      </defs>
      <g>
       <use xlink:href="#md0311dbd40" x="72" y="320.4" style="stroke: #000000; stroke-width: 0.8"/>
      </g>
     </g>
    </g>
    <g id="xtick_2">
     <g id="line2d_2">
      <g>
       <use xlink:href="#md0311dbd40" x="121.6" y="320.4" style="stroke: #000000; stroke-width: 0.8"/>
      </g>
     </g>
    </g>
    <g id="xtick_3">
     <g id="line2d_3">
      <g>
       <use xlink:href="#md0311dbd40" x="171.2" y="320.4" style="stroke: #000000; stroke-width: 0.8"/>
      </g>
     </g>
    </g>
    <g id="xtick_4">
     <g id="line2d_4">
      <g>
       <use xlink:href="#md0311dbd40" x="220.8" y="320.4" style="stroke: #000000; stroke-width: 0.8"/>
      </g>
     </g>
    </g>
    <g id="xtick_5">
     <g id="line2d_5">
      <g>
       <use xlink:href="#md0311dbd40" x="270.4" y="320.4" style="stroke: #000000; stroke-width: 0.8"/>
      </g>
     </g>
    </g>
    <g id="xtick_6">
     <g id="line2d_6">
      <g>
       <use xlink:href="#md0311dbd40" x="320" y="320.4" style="stroke: #000000; stroke-width: 0.8"/>
      </g>
     </g>
    </g>
    <g id="xtick_7">
     <g id="line2d_7">
      <g>
       <use xlink:href="#md0311dbd40" x="369.6" y="320.4" style="stroke: #000000; stroke-width: 0.8"/>
      </g>
     </g>
    </g>
    <g id="xtick_8">
     <g id="line2d_8">
      <g>
       <use xlink:href="#md0311dbd40" x="419.2" y="320.4" style="stroke: #000000; stroke-width: 0.8"/>
      </g>
     </g>
    </g>
    <g id="xtick_9">
     <g id="line2d_9">
      <g>
       <use xlink:href="#md0311dbd40" x="468.8" y="320.4" style="stroke: #000000; stroke-width: 0.8"/>
      </g>
     </g>
    </g>
    <g id="xtick_10">
     <g id="line2d_10">
      <g>
       <use xlink:href="#md0311dbd40" x="518.4" y="320.4" style="stroke: #000000; stroke-width: 0.8"/>
      </g>
     </g>
    </g>
   </g>
   <g id="matplotlib.axis_2">
    <g id="ytick_1">
     <g id="line2d_11">
      <defs>
       <path id="ma8fd4865ea" d="M 0 0 
L -5 0 
" style="stroke: #000000; stroke-width: 0.8"/>
      </defs>
      <g>
       <use xlink:href="#ma8fd4865ea" x="72" y="320.4" style="stroke: #000000; stroke-width: 0.8"/>
      </g>
     </g>
     <g id="text_1">
      <!-- 0 -->
      <g transform="translate(56.542187 324.199219)scale(0.1 -0.1)">
       <defs>
        <path id="DejaVuSans-Bold-30" d="M 2944 2338 
Q 2944 3213 2780 3570 
Q 2616 3928 2228 3928 
Q 1841 3928 1675 3570 
Q 1509 3213 1509 2338 
Q 1509 1453 1675 1090 
Q 1841 728 2228 728 
Q 2613 728 2778 1090 
Q 2944 1453 2944 2338 
z
M 4147 2328 
Q 4147 1169 3647 539 
Q 3147 -91 2228 -91 
Q 1306 -91 806 539 
Q 306 1169 306 2328 
Q 306 3491 806 4120 
Q 1306 4750 2228 4750 
Q 3147 4750 3647 4120 
Q 4147 3491 4147 2328 
z
" transform="scale(0.015625)"/>
       </defs>
       <use xlink:href="#DejaVuSans-Bold-30"/>
      </g>
     </g>
    </g>
    <g id="ytick_2">
     <g id="line2d_12">
      <g>
       <use xlink:href="#ma8fd4865ea" x="72" y="251.1" style="stroke: #000000; stroke-width: 0.8"/>
      </g>
     </g>
     <g id="text_2">
      <!-- 50 -->
      <g transform="translate(49.584375 254.899219)scale(0.1 -0.1)">
       <defs>
        <path id="DejaVuSans-Bold-35" d="M 678 4666 
L 3669 4666 
L 3669 3781 
L 1638 3781 
L 1638 3059 
Q 1775 3097 1914 3117 
Q 2053 3138 2203 3138 
Q 3056 3138 3531 2711 
Q 4006 2284 4006 1522 
Q 4006 766 3489 337 
Q 2972 -91 2053 -91 
Q 1656 -91 1267 -14 
Q 878 63 494 219 
L 494 1166 
Q 875 947 1217 837 
Q 1559 728 1863 728 
Q 2300 728 2551 942 
Q 2803 1156 2803 1522 
Q 2803 1891 2551 2103 
Q 2300 2316 1863 2316 
Q 1603 2316 1309 2248 
Q 1016 2181 678 2041 
L 678 4666 
z
" transform="scale(0.015625)"/>
       </defs>
       <use xlink:href="#DejaVuSans-Bold-35"/>
       <use xlink:href="#DejaVuSans-Bold-30" x="69.580078"/>
      </g>
     </g>
    </g>
    <g id="ytick_3">
     <g id="line2d_13">
      <g>
       <use xlink:href="#ma8fd4865ea" x="72" y="181.8" style="stroke: #000000; stroke-width: 0.8"/>
      </g>
     </g>
     <g id="text_3">
      <!-- 100 -->
      <g transform="translate(42.626562 185.599219)scale(0.1 -0.1)">
       <defs>
        <path id="DejaVuSans-Bold-31" d="M 750 831 
L 1813 831 
L 1813 3847 
L 722 3622 
L 722 4441 
L 1806 4666 
L 2950 4666 
L 2950 831 
L 4013 831 
L 4013 0 
L 750 0 
L 750 831 
z
" transform="scale(0.015625)"/>
       </defs>
       <use xlink:href="#DejaVuSans-Bold-31"/>
       <use xlink:href="#DejaVuSans-Bold-30" x="69.580078"/>
       <use xlink:href="#DejaVuSans-Bold-30" x="139.160156"/>
      </g>
     </g>
    </g>
    <g id="ytick_4">
     <g id="line2d_14">
      <g>
       <use xlink:href="#ma8fd4865ea" x="72" y="112.5" style="stroke: #000000; stroke-width: 0.8"/>
      </g>
     </g>
     <g id="text_4">
      <!-- 150 -->
      <g transform="translate(42.626562 116.299219)scale(0.1 -0.1)">
       <use xlink:href="#DejaVuSans-Bold-31"/>
       <use xlink:href="#DejaVuSans-Bold-35" x="69.580078"/>
       <use xlink:href="#DejaVuSans-Bold-30" x="139.160156"/>
      </g>
     </g>
    </g>
    <g id="ytick_5">
     <g id="line2d_15">
      <g>
       <use xlink:href="#ma8fd4865ea" x="72" y="43.2" style="stroke: #000000; stroke-width: 0.8"/>
      </g>
     </g>
     <g id="text_5">
      <!-- 200 -->
      <g transform="translate(42.626562 46.999219)scale(0.1 -0.1)">
       <defs>
        <path id="DejaVuSans-Bold-32" d="M 1844 884 
L 3897 884 
L 3897 0 
L 506 0 
L 506 884 
L 2209 2388 
Q 2438 2594 2547 2791 
Q 2656 2988 2656 3200 
Q 2656 3528 2436 3728 
Q 2216 3928 1850 3928 
Q 1569 3928 1234 3808 
Q 900 3688 519 3450 
L 519 4475 
Q 925 4609 1322 4679 
Q 1719 4750 2100 4750 
Q 2938 4750 3402 4381 
Q 3866 4013 3866 3353 
Q 3866 2972 3669 2642 
Q 3472 2313 2841 1759 
L 1844 884 
z
" transform="scale(0.015625)"/>
       </defs>
       <use xlink:href="#DejaVuSans-Bold-32"/>
       <use xlink:href="#DejaVuSans-Bold-30" x="69.580078"/>
       <use xlink:href="#DejaVuSans-Bold-30" x="139.160156"/>
      </g>
     </g>
    </g>
   </g>
   <g id="patch_12">
    <path d="M 72 320.4 
L 72 43.2 
" style="fill: none; stroke: #000000; stroke-width: 0.8; stroke-linejoin: miter; stroke-linecap: square"/>
   </g>
   <g id="patch_13">
    <path d="M 518.4 320.4 
L 518.4 43.2 
" style="fill: none; stroke: #000000; stroke-width: 0.8; stroke-linejoin: miter; stroke-linecap: square"/>
   </g>
   <g id="patch_14">
    <path d="M 72 320.4 
L 518.4 320.4 
" style="fill: none; stroke: #000000; stroke-width: 0.8; stroke-linejoin: miter; stroke-linecap: square"/>
   </g>
   <g id="text_6">
    <!-- HK$bn -->
    <g transform="translate(31.733063 31.656)scale(0.12 -0.12)">
     <defs>
      <path id="DejaVuSans-Bold-48" d="M 588 4666 
L 1791 4666 
L 1791 2888 
L 3566 2888 
L 3566 4666 
L 4769 4666 
L 4769 0 
L 3566 0 
L 3566 1978 
L 1791 1978 
L 1791 0 
L 588 0 
L 588 4666 
z
" transform="scale(0.015625)"/>
      <path id="DejaVuSans-Bold-4b" d="M 588 4666 
L 1791 4666 
L 1791 2963 
L 3525 4666 
L 4922 4666 
L 2675 2456 
L 5153 0 
L 3647 0 
L 1791 1838 
L 1791 0 
L 588 0 
L 588 4666 
z
" transform="scale(0.015625)"/>
      <path id="DejaVuSans-Bold-24" d="M 2484 -941 
L 1978 -941 
L 1975 0 
Q 1584 16 1218 87 
Q 853 159 506 288 
L 506 1106 
Q 866 922 1233 823 
Q 1600 725 1978 713 
L 1978 1684 
L 1875 1703 
Q 1128 1834 814 2115 
Q 500 2397 500 2925 
Q 500 3484 883 3798 
Q 1266 4113 1975 4141 
L 1978 4863 
L 2484 4863 
L 2484 4153 
Q 2797 4128 3109 4075 
Q 3422 4022 3738 3938 
L 3738 3144 
Q 3425 3275 3112 3348 
Q 2800 3422 2484 3438 
L 2484 2541 
L 2584 2522 
Q 3378 2397 3698 2105 
Q 4019 1813 4019 1241 
Q 4019 666 3637 358 
Q 3256 50 2484 6 
L 2484 -941 
z
M 1978 2613 
L 1978 3428 
Q 1756 3416 1623 3308 
Q 1491 3200 1491 3034 
Q 1491 2850 1612 2745 
Q 1734 2641 1978 2613 
z
M 2484 1594 
L 2484 725 
Q 2756 728 2892 831 
Q 3028 934 3028 1141 
Q 3028 1353 2903 1458 
Q 2778 1563 2484 1594 
z
" transform="scale(0.015625)"/>
      <path id="DejaVuSans-Bold-62" d="M 2400 722 
Q 2759 722 2948 984 
Q 3138 1247 3138 1747 
Q 3138 2247 2948 2509 
Q 2759 2772 2400 2772 
Q 2041 2772 1848 2508 
Q 1656 2244 1656 1747 
Q 1656 1250 1848 986 
Q 2041 722 2400 722 
z
M 1656 2988 
Q 1888 3294 2169 3439 
Q 2450 3584 2816 3584 
Q 3463 3584 3878 3070 
Q 4294 2556 4294 1747 
Q 4294 938 3878 423 
Q 3463 -91 2816 -91 
Q 2450 -91 2169 54 
Q 1888 200 1656 506 
L 1656 0 
L 538 0 
L 538 4863 
L 1656 4863 
L 1656 2988 
z
" transform="scale(0.015625)"/>
      <path id="DejaVuSans-Bold-6e" d="M 4056 2131 
L 4056 0 
L 2931 0 
L 2931 347 
L 2931 1631 
Q 2931 2084 2911 2256 
Q 2891 2428 2841 2509 
Q 2775 2619 2662 2680 
Q 2550 2741 2406 2741 
Q 2056 2741 1856 2470 
Q 1656 2200 1656 1722 
L 1656 0 
L 538 0 
L 538 3500 
L 1656 3500 
L 1656 2988 
Q 1909 3294 2193 3439 
Q 2478 3584 2822 3584 
Q 3428 3584 3742 3212 
Q 4056 2841 4056 2131 
z
" transform="scale(0.015625)"/>
     </defs>
     <use xlink:href="#DejaVuSans-Bold-48"/>
     <use xlink:href="#DejaVuSans-Bold-4b" x="83.691406"/>
     <use xlink:href="#DejaVuSans-Bold-24" x="161.181641"/>
     <use xlink:href="#DejaVuSans-Bold-62" x="230.761719"/>
     <use xlink:href="#DejaVuSans-Bold-6e" x="302.34375"/>
    </g>
   </g>
  </g>
  <g id="axes_2">
   <g id="matplotlib.axis_3">
    <g id="ytick_6">
     <g id="line2d_16">
      <defs>
       <path id="m8ca054cee5" d="M 0 0 
L 3.5 0 
" style="stroke: #000000; stroke-width: 0.8"/>
      </defs>
      <g>
       <use xlink:href="#m8ca054cee5" x="518.4" y="320.4" style="stroke: #000000; stroke-width: 0.8"/>
      </g>
     </g>
     <g id="text_7">
      <!-- 0 -->
      <g style="fill: #c23428" transform="translate(525.4 324.199219)scale(0.1 -0.1)">
       <use xlink:href="#DejaVuSans-Bold-30"/>
      </g>
     </g>
    </g>
    <g id="ytick_7">
     <g id="line2d_17">
      <g>
       <use xlink:href="#m8ca054cee5" x="518.4" y="274.2" style="stroke: #000000; stroke-width: 0.8"/>
      </g>
     </g>
     <g id="text_8">
      <!-- 5 -->
      <g style="fill: #c23428" transform="translate(525.4 277.999219)scale(0.1 -0.1)">
       <use xlink:href="#DejaVuSans-Bold-35"/>
      </g>
     </g>
    </g>
    <g id="ytick_8">
     <g id="line2d_18">
      <g>
       <use xlink:href="#m8ca054cee5" x="518.4" y="228" style="stroke: #000000; stroke-width: 0.8"/>
      </g>
     </g>
     <g id="text_9">
      <!-- 10 -->
      <g style="fill: #c23428" transform="translate(525.4 231.799219)scale(0.1 -0.1)">
       <use xlink:href="#DejaVuSans-Bold-31"/>
       <use xlink:href="#DejaVuSans-Bold-30" x="69.580078"/>
      </g>
     </g>
    </g>
    <g id="ytick_9">
     <g id="line2d_19">
      <g>
       <use xlink:href="#m8ca054cee5" x="518.4" y="181.8" style="stroke: #000000; stroke-width: 0.8"/>
      </g>
     </g>
     <g id="text_10">
      <!-- 15 -->
      <g style="fill: #c23428" transform="translate(525.4 185.599219)scale(0.1 -0.1)">
       <use xlink:href="#DejaVuSans-Bold-31"/>
       <use xlink:href="#DejaVuSans-Bold-35" x="69.580078"/>
      </g>
     </g>
    </g>
    <g id="ytick_10">
     <g id="line2d_20">
      <g>
       <use xlink:href="#m8ca054cee5" x="518.4" y="135.6" style="stroke: #000000; stroke-width: 0.8"/>
      </g>
     </g>
     <g id="text_11">
      <!-- 20 -->
      <g style="fill: #c23428" transform="translate(525.4 139.399219)scale(0.1 -0.1)">
       <use xlink:href="#DejaVuSans-Bold-32"/>
       <use xlink:href="#DejaVuSans-Bold-30" x="69.580078"/>
      </g>
     </g>
    </g>
    <g id="ytick_11">
     <g id="line2d_21">
      <g>
       <use xlink:href="#m8ca054cee5" x="518.4" y="89.4" style="stroke: #000000; stroke-width: 0.8"/>
      </g>
     </g>
     <g id="text_12">
      <!-- 25 -->
      <g style="fill: #c23428" transform="translate(525.4 93.199219)scale(0.1 -0.1)">
       <use xlink:href="#DejaVuSans-Bold-32"/>
       <use xlink:href="#DejaVuSans-Bold-35" x="69.580078"/>
      </g>
     </g>
    </g>
    <g id="ytick_12">
     <g id="line2d_22">
      <g>
       <use xlink:href="#m8ca054cee5" x="518.4" y="43.2" style="stroke: #000000; stroke-width: 0.8"/>
      </g>
     </g>
     <g id="text_13">
      <!-- 30 -->
      <g style="fill: #c23428" transform="translate(525.4 46.999219)scale(0.1 -0.1)">
       <defs>
        <path id="DejaVuSans-Bold-33" d="M 2981 2516 
Q 3453 2394 3698 2092 
Q 3944 1791 3944 1325 
Q 3944 631 3412 270 
Q 2881 -91 1863 -91 
Q 1503 -91 1142 -33 
Q 781 25 428 141 
L 428 1069 
Q 766 900 1098 814 
Q 1431 728 1753 728 
Q 2231 728 2486 893 
Q 2741 1059 2741 1369 
Q 2741 1688 2480 1852 
Q 2219 2016 1709 2016 
L 1228 2016 
L 1228 2791 
L 1734 2791 
Q 2188 2791 2409 2933 
Q 2631 3075 2631 3366 
Q 2631 3634 2415 3781 
Q 2200 3928 1806 3928 
Q 1516 3928 1219 3862 
Q 922 3797 628 3669 
L 628 4550 
Q 984 4650 1334 4700 
Q 1684 4750 2022 4750 
Q 2931 4750 3382 4451 
Q 3834 4153 3834 3553 
Q 3834 3144 3618 2883 
Q 3403 2622 2981 2516 
z
" transform="scale(0.015625)"/>
       </defs>
       <use xlink:href="#DejaVuSans-Bold-33"/>
       <use xlink:href="#DejaVuSans-Bold-30" x="69.580078"/>
      </g>
     </g>
    </g>
   </g>
   <g id="line2d_23">
    <path d="M 96.8 142.068 
L 146.4 175.332 
L 196 149.46 
L 245.6 169.788 
L 295.2 195.66 
L 344.8 114.348 
L 394.4 74.616 
L 444 140.22 
L 493.6 98.64 
" clip-path="url(#p0d0f32581b)" style="fill: none; stroke: #c23428; stroke-width: 5; stroke-linecap: square"/>
    <defs>
     <path id="m83b0c2abd0" d="M 0 8.25 
C 2.187926 8.25 4.286534 7.380728 5.833631 5.833631 
C 7.380728 4.286534 8.25 2.187926 8.25 0 
C 8.25 -2.187926 7.380728 -4.286534 5.833631 -5.833631 
C 4.286534 -7.380728 2.187926 -8.25 0 -8.25 
C -2.187926 -8.25 -4.286534 -7.380728 -5.833631 -5.833631 
C -7.380728 -4.286534 -8.25 -2.187926 -8.25 0 
C -8.25 2.187926 -7.380728 4.286534 -5.833631 5.833631 
C -4.286534 7.380728 -2.187926 8.25 0 8.25 
z
" style="stroke: #c23428"/>
    </defs>
    <g clip-path="url(#p0d0f32581b)">
     <use xlink:href="#m83b0c2abd0" x="96.8" y="142.068" style="fill: #ffffff; stroke: #c23428"/>
     <use xlink:href="#m83b0c2abd0" x="146.4" y="175.332" style="fill: #ffffff; stroke: #c23428"/>
     <use xlink:href="#m83b0c2abd0" x="196" y="149.46" style="fill: #ffffff; stroke: #c23428"/>
     <use xlink:href="#m83b0c2abd0" x="245.6" y="169.788" style="fill: #ffffff; stroke: #c23428"/>
     <use xlink:href="#m83b0c2abd0" x="295.2" y="195.66" style="fill: #ffffff; stroke: #c23428"/>
     <use xlink:href="#m83b0c2abd0" x="344.8" y="114.348" style="fill: #ffffff; stroke: #c23428"/>
     <use xlink:href="#m83b0c2abd0" x="394.4" y="74.616" style="fill: #ffffff; stroke: #c23428"/>
     <use xlink:href="#m83b0c2abd0" x="444" y="140.22" style="fill: #ffffff; stroke: #c23428"/>
     <use xlink:href="#m83b0c2abd0" x="493.6" y="98.64" style="fill: #ffffff; stroke: #c23428"/>
    </g>
   </g>
   <g id="patch_15">
    <path d="M 72 320.4 
L 72 43.2 
" style="fill: none; stroke: #000000; stroke-width: 0.8; stroke-linejoin: miter; stroke-linecap: square"/>
   </g>
   <g id="patch_16">
    <path d="M 518.4 320.4 
L 518.4 43.2 
" style="fill: none; stroke: #000000; stroke-width: 0.8; stroke-linejoin: miter; stroke-linecap: square"/>
   </g>
   <g id="patch_17">
    <path d="M 72 320.4 
L 518.4 320.4 
" style="fill: none; stroke: #000000; stroke-width: 0.8; stroke-linejoin: miter; stroke-linecap: square"/>
   </g>
   <g id="text_14">
    <!-- Amount of land premium paid by developers -->
    <g style="fill: #2a4968" transform="translate(76.96 47.82)scale(0.14 -0.14)">
     <defs>
      <path id="Calibri-Bold-41" d="M 3753 306 
Q 3791 194 3800 128 
Q 3809 63 3775 30 
Q 3741 -3 3653 -11 
Q 3566 -19 3413 -19 
Q 3253 -19 3164 -14 
Q 3075 -9 3028 5 
Q 2981 19 2962 44 
Q 2944 69 2931 109 
L 2659 922 
L 1141 922 
L 884 131 
Q 872 88 851 58 
Q 831 28 786 11 
Q 741 -6 658 -12 
Q 575 -19 441 -19 
Q 297 -19 215 -9 
Q 134 0 103 36 
Q 72 72 81 137 
Q 91 203 128 313 
L 1375 3900 
Q 1394 3953 1419 3986 
Q 1444 4019 1498 4036 
Q 1553 4053 1650 4058 
Q 1747 4063 1906 4063 
Q 2091 4063 2200 4058 
Q 2309 4053 2370 4036 
Q 2431 4019 2457 3984 
Q 2484 3950 2503 3891 
L 3753 306 
z
M 1897 3272 
L 1894 3272 
L 1322 1553 
L 2469 1553 
L 1897 3272 
z
" transform="scale(0.015625)"/>
      <path id="Calibri-Bold-6d" d="M 4828 106 
Q 4828 75 4809 51 
Q 4791 28 4747 12 
Q 4703 -3 4628 -11 
Q 4553 -19 4438 -19 
Q 4319 -19 4244 -11 
Q 4169 -3 4123 12 
Q 4078 28 4061 51 
Q 4044 75 4044 106 
L 4044 1759 
Q 4044 1900 4017 2015 
Q 3991 2131 3936 2214 
Q 3881 2297 3798 2342 
Q 3716 2388 3600 2388 
Q 3459 2388 3315 2278 
Q 3172 2169 3003 1959 
L 3003 106 
Q 3003 75 2984 51 
Q 2966 28 2920 12 
Q 2875 -3 2800 -11 
Q 2725 -19 2613 -19 
Q 2497 -19 2422 -11 
Q 2347 -3 2301 12 
Q 2256 28 2237 51 
Q 2219 75 2219 106 
L 2219 1759 
Q 2219 1900 2192 2015 
Q 2166 2131 2112 2214 
Q 2059 2297 1975 2342 
Q 1891 2388 1778 2388 
Q 1634 2388 1490 2278 
Q 1347 2169 1181 1959 
L 1181 106 
Q 1181 75 1162 51 
Q 1144 28 1098 12 
Q 1053 -3 978 -11 
Q 903 -19 788 -19 
Q 672 -19 597 -11 
Q 522 -3 476 12 
Q 431 28 412 51 
Q 394 75 394 106 
L 394 2894 
Q 394 2925 409 2948 
Q 425 2972 465 2987 
Q 506 3003 570 3011 
Q 634 3019 731 3019 
Q 831 3019 897 3011 
Q 963 3003 998 2987 
Q 1034 2972 1050 2948 
Q 1066 2925 1066 2894 
L 1066 2572 
Q 1297 2822 1526 2947 
Q 1756 3072 2006 3072 
Q 2178 3072 2315 3036 
Q 2453 3000 2561 2933 
Q 2669 2866 2747 2772 
Q 2825 2678 2878 2563 
Q 3003 2697 3123 2794 
Q 3244 2891 3361 2952 
Q 3478 3013 3595 3042 
Q 3713 3072 3834 3072 
Q 4113 3072 4303 2978 
Q 4494 2884 4611 2723 
Q 4728 2563 4778 2347 
Q 4828 2131 4828 1891 
L 4828 106 
z
" transform="scale(0.015625)"/>
      <path id="Calibri-Bold-6f" d="M 3213 1528 
Q 3213 1172 3119 878 
Q 3025 584 2834 371 
Q 2644 159 2356 43 
Q 2069 -72 1684 -72 
Q 1313 -72 1038 31 
Q 763 134 581 331 
Q 400 528 312 815 
Q 225 1103 225 1472 
Q 225 1828 320 2123 
Q 416 2419 606 2630 
Q 797 2841 1083 2956 
Q 1369 3072 1753 3072 
Q 2128 3072 2403 2970 
Q 2678 2869 2858 2672 
Q 3038 2475 3125 2187 
Q 3213 1900 3213 1528 
z
M 2403 1497 
Q 2403 1703 2370 1876 
Q 2338 2050 2259 2178 
Q 2181 2306 2051 2378 
Q 1922 2450 1725 2450 
Q 1550 2450 1419 2386 
Q 1288 2322 1203 2198 
Q 1119 2075 1076 1901 
Q 1034 1728 1034 1506 
Q 1034 1300 1068 1126 
Q 1103 953 1179 825 
Q 1256 697 1387 626 
Q 1519 556 1713 556 
Q 1891 556 2022 620 
Q 2153 684 2237 806 
Q 2322 928 2362 1101 
Q 2403 1275 2403 1497 
z
" transform="scale(0.015625)"/>
      <path id="Calibri-Bold-75" d="M 3038 106 
Q 3038 75 3022 51 
Q 3006 28 2967 12 
Q 2928 -3 2864 -11 
Q 2800 -19 2703 -19 
Q 2600 -19 2536 -11 
Q 2472 -3 2434 12 
Q 2397 28 2381 51 
Q 2366 75 2366 106 
L 2366 428 
Q 2134 178 1895 53 
Q 1656 -72 1400 -72 
Q 1113 -72 917 22 
Q 722 116 601 278 
Q 481 441 429 655 
Q 378 869 378 1188 
L 378 2894 
Q 378 2925 395 2948 
Q 413 2972 458 2987 
Q 503 3003 579 3011 
Q 656 3019 769 3019 
Q 884 3019 959 3011 
Q 1034 3003 1079 2987 
Q 1125 2972 1144 2948 
Q 1163 2925 1163 2894 
L 1163 1319 
Q 1163 1100 1191 984 
Q 1219 869 1276 786 
Q 1334 703 1423 658 
Q 1513 613 1631 613 
Q 1781 613 1932 722 
Q 2084 831 2256 1041 
L 2256 2894 
Q 2256 2925 2273 2948 
Q 2291 2972 2336 2987 
Q 2381 3003 2456 3011 
Q 2531 3019 2647 3019 
Q 2763 3019 2838 3011 
Q 2913 3003 2956 2987 
Q 3000 2972 3019 2948 
Q 3038 2925 3038 2894 
L 3038 106 
z
" transform="scale(0.015625)"/>
      <path id="Calibri-Bold-6e" d="M 3056 106 
Q 3056 75 3037 51 
Q 3019 28 2975 12 
Q 2931 -3 2854 -11 
Q 2778 -19 2666 -19 
Q 2550 -19 2473 -11 
Q 2397 -3 2353 12 
Q 2309 28 2290 51 
Q 2272 75 2272 106 
L 2272 1697 
Q 2272 1900 2242 2015 
Q 2213 2131 2156 2214 
Q 2100 2297 2011 2342 
Q 1922 2388 1803 2388 
Q 1653 2388 1500 2278 
Q 1347 2169 1181 1959 
L 1181 106 
Q 1181 75 1162 51 
Q 1144 28 1098 12 
Q 1053 -3 978 -11 
Q 903 -19 788 -19 
Q 672 -19 597 -11 
Q 522 -3 476 12 
Q 431 28 412 51 
Q 394 75 394 106 
L 394 2894 
Q 394 2925 409 2948 
Q 425 2972 465 2987 
Q 506 3003 570 3011 
Q 634 3019 731 3019 
Q 831 3019 897 3011 
Q 963 3003 998 2987 
Q 1034 2972 1050 2948 
Q 1066 2925 1066 2894 
L 1066 2572 
Q 1297 2822 1536 2947 
Q 1775 3072 2034 3072 
Q 2319 3072 2514 2978 
Q 2709 2884 2829 2723 
Q 2950 2563 3003 2347 
Q 3056 2131 3056 1828 
L 3056 106 
z
" transform="scale(0.015625)"/>
      <path id="Calibri-Bold-74" d="M 2044 381 
Q 2044 244 2026 170 
Q 2009 97 1981 67 
Q 1953 38 1898 14 
Q 1844 -9 1770 -26 
Q 1697 -44 1611 -53 
Q 1525 -63 1438 -63 
Q 1203 -63 1031 -3 
Q 859 56 746 179 
Q 634 303 581 490 
Q 528 678 528 934 
L 528 2363 
L 194 2363 
Q 134 2363 103 2436 
Q 72 2509 72 2681 
Q 72 2772 80 2834 
Q 88 2897 103 2933 
Q 119 2969 142 2984 
Q 166 3000 197 3000 
L 528 3000 
L 528 3622 
Q 528 3653 545 3678 
Q 563 3703 608 3720 
Q 653 3738 729 3745 
Q 806 3753 919 3753 
Q 1034 3753 1111 3745 
Q 1188 3738 1231 3720 
Q 1275 3703 1294 3678 
Q 1313 3653 1313 3622 
L 1313 3000 
L 1919 3000 
Q 1950 3000 1973 2984 
Q 1997 2969 2012 2933 
Q 2028 2897 2036 2834 
Q 2044 2772 2044 2681 
Q 2044 2509 2012 2436 
Q 1981 2363 1922 2363 
L 1313 2363 
L 1313 1053 
Q 1313 825 1384 711 
Q 1456 597 1641 597 
Q 1703 597 1753 608 
Q 1803 619 1842 633 
Q 1881 647 1907 658 
Q 1934 669 1956 669 
Q 1975 669 1992 658 
Q 2009 647 2018 614 
Q 2028 581 2036 525 
Q 2044 469 2044 381 
z
" transform="scale(0.015625)"/>
      <path id="Calibri-Bold-20" transform="scale(0.015625)"/>
      <path id="Calibri-Bold-66" d="M 2075 3956 
Q 2075 3866 2069 3811 
Q 2063 3756 2050 3726 
Q 2038 3697 2022 3686 
Q 2006 3675 1988 3675 
Q 1966 3675 1939 3686 
Q 1913 3697 1873 3709 
Q 1834 3722 1781 3733 
Q 1728 3744 1656 3744 
Q 1572 3744 1511 3717 
Q 1450 3691 1409 3633 
Q 1369 3575 1350 3483 
Q 1331 3391 1331 3256 
L 1331 3000 
L 1841 3000 
Q 1869 3000 1892 2984 
Q 1916 2969 1931 2933 
Q 1947 2897 1955 2834 
Q 1963 2772 1963 2681 
Q 1963 2509 1931 2436 
Q 1900 2363 1841 2363 
L 1331 2363 
L 1331 106 
Q 1331 75 1312 51 
Q 1294 28 1250 12 
Q 1206 -3 1128 -11 
Q 1050 -19 938 -19 
Q 825 -19 748 -11 
Q 672 -3 626 12 
Q 581 28 564 51 
Q 547 75 547 106 
L 547 2363 
L 197 2363 
Q 138 2363 108 2436 
Q 78 2509 78 2681 
Q 78 2772 86 2834 
Q 94 2897 108 2933 
Q 122 2969 145 2984 
Q 169 3000 200 3000 
L 547 3000 
L 547 3234 
Q 547 3519 603 3733 
Q 659 3947 779 4089 
Q 900 4231 1086 4303 
Q 1272 4375 1525 4375 
Q 1647 4375 1756 4354 
Q 1866 4334 1928 4311 
Q 1991 4288 2012 4267 
Q 2034 4247 2048 4208 
Q 2063 4169 2069 4108 
Q 2075 4047 2075 3956 
z
" transform="scale(0.015625)"/>
      <path id="Calibri-Bold-6c" d="M 1181 106 
Q 1181 75 1162 51 
Q 1144 28 1098 12 
Q 1053 -3 978 -11 
Q 903 -19 788 -19 
Q 672 -19 597 -11 
Q 522 -3 476 12 
Q 431 28 412 51 
Q 394 75 394 106 
L 394 4216 
Q 394 4247 412 4272 
Q 431 4297 476 4314 
Q 522 4331 597 4340 
Q 672 4350 788 4350 
Q 903 4350 978 4340 
Q 1053 4331 1098 4314 
Q 1144 4297 1162 4272 
Q 1181 4247 1181 4216 
L 1181 106 
z
" transform="scale(0.015625)"/>
      <path id="Calibri-Bold-61" d="M 2769 97 
Q 2769 53 2737 28 
Q 2706 3 2639 -8 
Q 2572 -19 2441 -19 
Q 2300 -19 2236 -8 
Q 2172 3 2145 28 
Q 2119 53 2119 97 
L 2119 319 
Q 1947 134 1726 31 
Q 1506 -72 1238 -72 
Q 1016 -72 830 -14 
Q 644 44 508 158 
Q 372 272 297 440 
Q 222 609 222 834 
Q 222 1078 317 1258 
Q 413 1438 602 1555 
Q 791 1672 1072 1728 
Q 1353 1784 1725 1784 
L 1997 1784 
L 1997 1953 
Q 1997 2084 1970 2182 
Q 1944 2281 1883 2347 
Q 1822 2413 1720 2444 
Q 1619 2475 1469 2475 
Q 1272 2475 1117 2431 
Q 963 2388 844 2334 
Q 725 2281 645 2237 
Q 566 2194 516 2194 
Q 481 2194 454 2216 
Q 428 2238 411 2278 
Q 394 2319 384 2378 
Q 375 2438 375 2509 
Q 375 2606 390 2662 
Q 406 2719 450 2764 
Q 494 2809 603 2864 
Q 713 2919 859 2966 
Q 1006 3013 1179 3042 
Q 1353 3072 1538 3072 
Q 1866 3072 2098 3008 
Q 2331 2944 2481 2811 
Q 2631 2678 2700 2468 
Q 2769 2259 2769 1972 
L 2769 97 
z
M 1997 1291 
L 1697 1291 
Q 1506 1291 1372 1262 
Q 1238 1234 1153 1178 
Q 1069 1122 1030 1042 
Q 991 963 991 859 
Q 991 684 1102 584 
Q 1213 484 1409 484 
Q 1575 484 1714 568 
Q 1853 653 1997 816 
L 1997 1291 
z
" transform="scale(0.015625)"/>
      <path id="Calibri-Bold-64" d="M 3038 106 
Q 3038 72 3022 48 
Q 3006 25 2968 9 
Q 2931 -6 2867 -12 
Q 2803 -19 2709 -19 
Q 2609 -19 2546 -12 
Q 2484 -6 2445 9 
Q 2406 25 2389 48 
Q 2372 72 2372 106 
L 2372 416 
Q 2156 184 1920 56 
Q 1684 -72 1397 -72 
Q 1078 -72 858 51 
Q 638 175 498 384 
Q 359 594 296 873 
Q 234 1153 234 1463 
Q 234 1834 314 2131 
Q 394 2428 547 2637 
Q 700 2847 928 2959 
Q 1156 3072 1453 3072 
Q 1688 3072 1878 2976 
Q 2069 2881 2256 2697 
L 2256 4206 
Q 2256 4238 2273 4263 
Q 2291 4288 2336 4305 
Q 2381 4322 2456 4331 
Q 2531 4341 2647 4341 
Q 2763 4341 2838 4331 
Q 2913 4322 2956 4305 
Q 3000 4288 3019 4263 
Q 3038 4238 3038 4206 
L 3038 106 
z
M 2256 1969 
Q 2088 2181 1933 2293 
Q 1778 2406 1609 2406 
Q 1456 2406 1345 2329 
Q 1234 2253 1167 2125 
Q 1100 1997 1067 1839 
Q 1034 1681 1034 1516 
Q 1034 1341 1062 1175 
Q 1091 1009 1155 879 
Q 1219 750 1325 672 
Q 1431 594 1594 594 
Q 1675 594 1751 617 
Q 1828 641 1908 694 
Q 1988 747 2072 833 
Q 2156 919 2256 1044 
L 2256 1969 
z
" transform="scale(0.015625)"/>
      <path id="Calibri-Bold-70" d="M 3200 1541 
Q 3200 1169 3120 870 
Q 3041 572 2887 362 
Q 2734 153 2506 40 
Q 2278 -72 1984 -72 
Q 1863 -72 1761 -48 
Q 1659 -25 1564 23 
Q 1469 72 1375 144 
Q 1281 216 1181 313 
L 1181 -1000 
Q 1181 -1031 1162 -1056 
Q 1144 -1081 1098 -1098 
Q 1053 -1116 978 -1125 
Q 903 -1134 788 -1134 
Q 672 -1134 597 -1125 
Q 522 -1116 476 -1098 
Q 431 -1081 412 -1056 
Q 394 -1031 394 -1000 
L 394 2894 
Q 394 2925 409 2948 
Q 425 2972 464 2987 
Q 503 3003 567 3011 
Q 631 3019 728 3019 
Q 822 3019 886 3011 
Q 950 3003 989 2987 
Q 1028 2972 1043 2948 
Q 1059 2925 1059 2894 
L 1059 2566 
Q 1181 2691 1298 2786 
Q 1416 2881 1537 2945 
Q 1659 3009 1789 3040 
Q 1919 3072 2066 3072 
Q 2372 3072 2587 2951 
Q 2803 2831 2939 2622 
Q 3075 2413 3137 2134 
Q 3200 1856 3200 1541 
z
M 2381 1484 
Q 2381 1663 2354 1827 
Q 2328 1991 2264 2119 
Q 2200 2247 2095 2323 
Q 1991 2400 1834 2400 
Q 1756 2400 1679 2376 
Q 1603 2353 1523 2300 
Q 1444 2247 1359 2162 
Q 1275 2078 1181 1953 
L 1181 1034 
Q 1347 825 1497 711 
Q 1647 597 1809 597 
Q 1963 597 2070 675 
Q 2178 753 2247 879 
Q 2316 1006 2348 1165 
Q 2381 1325 2381 1484 
z
" transform="scale(0.015625)"/>
      <path id="Calibri-Bold-72" d="M 2184 2634 
Q 2184 2522 2178 2450 
Q 2172 2378 2159 2337 
Q 2147 2297 2126 2281 
Q 2106 2266 2075 2266 
Q 2050 2266 2019 2277 
Q 1988 2288 1948 2300 
Q 1909 2313 1862 2323 
Q 1816 2334 1759 2334 
Q 1694 2334 1628 2307 
Q 1563 2281 1492 2225 
Q 1422 2169 1345 2075 
Q 1269 1981 1181 1844 
L 1181 106 
Q 1181 75 1162 51 
Q 1144 28 1098 12 
Q 1053 -3 978 -11 
Q 903 -19 788 -19 
Q 672 -19 597 -11 
Q 522 -3 476 12 
Q 431 28 412 51 
Q 394 75 394 106 
L 394 2894 
Q 394 2925 409 2948 
Q 425 2972 465 2987 
Q 506 3003 570 3011 
Q 634 3019 731 3019 
Q 831 3019 897 3011 
Q 963 3003 998 2987 
Q 1034 2972 1050 2948 
Q 1066 2925 1066 2894 
L 1066 2547 
Q 1175 2703 1272 2804 
Q 1369 2906 1456 2965 
Q 1544 3025 1631 3048 
Q 1719 3072 1806 3072 
Q 1847 3072 1894 3067 
Q 1941 3063 1991 3052 
Q 2041 3041 2078 3027 
Q 2116 3013 2133 2997 
Q 2150 2981 2158 2962 
Q 2166 2944 2172 2911 
Q 2178 2878 2181 2812 
Q 2184 2747 2184 2634 
z
" transform="scale(0.015625)"/>
      <path id="Calibri-Bold-65" d="M 2969 1581 
Q 2969 1438 2905 1369 
Q 2841 1300 2728 1300 
L 1031 1300 
Q 1031 1122 1073 976 
Q 1116 831 1208 729 
Q 1300 628 1445 575 
Q 1591 522 1794 522 
Q 2000 522 2156 551 
Q 2313 581 2427 617 
Q 2541 653 2616 683 
Q 2691 713 2738 713 
Q 2766 713 2784 702 
Q 2803 691 2815 662 
Q 2828 634 2833 582 
Q 2838 531 2838 453 
Q 2838 384 2834 336 
Q 2831 288 2825 253 
Q 2819 219 2806 195 
Q 2794 172 2773 150 
Q 2753 128 2662 90 
Q 2572 53 2431 17 
Q 2291 -19 2109 -45 
Q 1928 -72 1722 -72 
Q 1350 -72 1070 22 
Q 791 116 603 306 
Q 416 497 323 787 
Q 231 1078 231 1469 
Q 231 1841 328 2139 
Q 425 2438 609 2645 
Q 794 2853 1058 2962 
Q 1322 3072 1653 3072 
Q 2003 3072 2251 2969 
Q 2500 2866 2659 2683 
Q 2819 2500 2894 2250 
Q 2969 2000 2969 1706 
L 2969 1581 
z
M 2206 1806 
Q 2216 2138 2073 2327 
Q 1931 2516 1634 2516 
Q 1484 2516 1373 2459 
Q 1263 2403 1189 2308 
Q 1116 2213 1077 2083 
Q 1038 1953 1031 1806 
L 2206 1806 
z
" transform="scale(0.015625)"/>
      <path id="Calibri-Bold-69" d="M 1181 106 
Q 1181 75 1162 51 
Q 1144 28 1098 12 
Q 1053 -3 978 -11 
Q 903 -19 788 -19 
Q 672 -19 597 -11 
Q 522 -3 476 12 
Q 431 28 412 51 
Q 394 75 394 106 
L 394 2888 
Q 394 2919 412 2942 
Q 431 2966 476 2983 
Q 522 3000 597 3009 
Q 672 3019 788 3019 
Q 903 3019 978 3009 
Q 1053 3000 1098 2983 
Q 1144 2966 1162 2942 
Q 1181 2919 1181 2888 
L 1181 106 
z
M 1241 3838 
Q 1241 3600 1144 3509 
Q 1047 3419 784 3419 
Q 519 3419 426 3506 
Q 334 3594 334 3822 
Q 334 4059 429 4151 
Q 525 4244 791 4244 
Q 1053 4244 1147 4155 
Q 1241 4066 1241 3838 
z
" transform="scale(0.015625)"/>
      <path id="Calibri-Bold-62" d="M 3200 1538 
Q 3200 1166 3119 869 
Q 3038 572 2884 362 
Q 2731 153 2507 40 
Q 2284 -72 2000 -72 
Q 1859 -72 1737 -45 
Q 1616 -19 1505 40 
Q 1394 100 1286 190 
Q 1178 281 1066 409 
L 1066 106 
Q 1066 72 1048 48 
Q 1031 25 992 9 
Q 953 -6 887 -12 
Q 822 -19 728 -19 
Q 631 -19 567 -12 
Q 503 -6 464 9 
Q 425 25 409 48 
Q 394 72 394 106 
L 394 4216 
Q 394 4247 412 4272 
Q 431 4297 476 4314 
Q 522 4331 597 4340 
Q 672 4350 788 4350 
Q 903 4350 978 4340 
Q 1053 4331 1098 4314 
Q 1144 4297 1162 4272 
Q 1181 4247 1181 4216 
L 1181 2675 
Q 1288 2781 1394 2856 
Q 1500 2931 1606 2979 
Q 1713 3028 1825 3050 
Q 1938 3072 2063 3072 
Q 2372 3072 2587 2948 
Q 2803 2825 2939 2615 
Q 3075 2406 3137 2126 
Q 3200 1847 3200 1538 
z
M 2384 1481 
Q 2384 1659 2357 1825 
Q 2331 1991 2265 2119 
Q 2200 2247 2095 2323 
Q 1991 2400 1831 2400 
Q 1753 2400 1678 2378 
Q 1603 2356 1523 2303 
Q 1444 2250 1359 2165 
Q 1275 2081 1181 1956 
L 1181 1031 
Q 1347 819 1498 708 
Q 1650 597 1816 597 
Q 1969 597 2075 675 
Q 2181 753 2251 878 
Q 2322 1003 2353 1162 
Q 2384 1322 2384 1481 
z
" transform="scale(0.015625)"/>
      <path id="Calibri-Bold-79" d="M 2009 0 
L 1672 -988 
Q 1644 -1066 1519 -1100 
Q 1394 -1134 1153 -1134 
Q 1028 -1134 953 -1123 
Q 878 -1113 840 -1088 
Q 803 -1063 800 -1025 
Q 797 -988 819 -934 
L 1191 0 
Q 1150 19 1117 58 
Q 1084 97 1069 141 
L 109 2703 
Q 69 2813 69 2870 
Q 69 2928 106 2961 
Q 144 2994 233 3006 
Q 322 3019 469 3019 
Q 603 3019 681 3014 
Q 759 3009 803 2990 
Q 847 2972 869 2933 
Q 891 2894 913 2822 
L 1569 956 
L 1578 956 
L 2178 2859 
Q 2197 2941 2226 2967 
Q 2256 2994 2325 3006 
Q 2394 3019 2566 3019 
Q 2700 3019 2789 3006 
Q 2878 2994 2920 2959 
Q 2963 2925 2963 2867 
Q 2963 2809 2938 2731 
L 2009 0 
z
" transform="scale(0.015625)"/>
      <path id="Calibri-Bold-76" d="M 2959 2897 
Q 2959 2881 2957 2859 
Q 2956 2838 2951 2811 
Q 2947 2784 2939 2750 
Q 2931 2716 2919 2672 
L 2081 150 
Q 2066 97 2039 64 
Q 2013 31 1952 12 
Q 1891 -6 1786 -12 
Q 1681 -19 1513 -19 
Q 1347 -19 1242 -11 
Q 1138 -3 1078 15 
Q 1019 34 992 67 
Q 966 100 950 150 
L 113 2672 
Q 94 2734 83 2784 
Q 72 2834 70 2856 
Q 69 2878 69 2897 
Q 69 2928 86 2951 
Q 103 2975 147 2990 
Q 191 3006 267 3012 
Q 344 3019 459 3019 
Q 588 3019 666 3011 
Q 744 3003 789 2989 
Q 834 2975 853 2948 
Q 872 2922 884 2884 
L 1519 838 
L 1538 759 
L 1556 838 
L 2181 2884 
Q 2191 2922 2211 2948 
Q 2231 2975 2275 2989 
Q 2319 3003 2392 3011 
Q 2466 3019 2584 3019 
Q 2700 3019 2773 3012 
Q 2847 3006 2887 2990 
Q 2928 2975 2943 2951 
Q 2959 2928 2959 2897 
z
" transform="scale(0.015625)"/>
      <path id="Calibri-Bold-73" d="M 2356 894 
Q 2356 656 2267 475 
Q 2178 294 2015 172 
Q 1853 50 1631 -11 
Q 1409 -72 1150 -72 
Q 994 -72 851 -48 
Q 709 -25 596 11 
Q 484 47 409 84 
Q 334 122 300 155 
Q 266 188 247 258 
Q 228 328 228 466 
Q 228 556 234 611 
Q 241 666 253 698 
Q 266 731 284 742 
Q 303 753 331 753 
Q 366 753 433 714 
Q 500 675 600 628 
Q 700 581 833 540 
Q 966 500 1134 500 
Q 1241 500 1323 522 
Q 1406 544 1467 584 
Q 1528 625 1559 687 
Q 1591 750 1591 831 
Q 1591 925 1533 992 
Q 1475 1059 1379 1109 
Q 1284 1159 1164 1203 
Q 1044 1247 917 1300 
Q 791 1353 670 1422 
Q 550 1491 454 1591 
Q 359 1691 301 1831 
Q 244 1972 244 2169 
Q 244 2369 322 2536 
Q 400 2703 547 2822 
Q 694 2941 905 3006 
Q 1116 3072 1378 3072 
Q 1509 3072 1632 3053 
Q 1756 3034 1856 3006 
Q 1956 2978 2025 2945 
Q 2094 2913 2123 2889 
Q 2153 2866 2165 2842 
Q 2178 2819 2184 2786 
Q 2191 2753 2195 2704 
Q 2200 2656 2200 2584 
Q 2200 2500 2195 2447 
Q 2191 2394 2180 2362 
Q 2169 2331 2150 2320 
Q 2131 2309 2106 2309 
Q 2078 2309 2018 2342 
Q 1959 2375 1870 2412 
Q 1781 2450 1664 2483 
Q 1547 2516 1397 2516 
Q 1291 2516 1212 2494 
Q 1134 2472 1084 2431 
Q 1034 2391 1009 2336 
Q 984 2281 984 2219 
Q 984 2122 1043 2056 
Q 1103 1991 1200 1941 
Q 1297 1891 1420 1847 
Q 1544 1803 1670 1751 
Q 1797 1700 1920 1631 
Q 2044 1563 2141 1463 
Q 2238 1363 2297 1223 
Q 2356 1084 2356 894 
z
" transform="scale(0.015625)"/>
     </defs>
     <use xlink:href="#Calibri-Bold-41"/>
     <use xlink:href="#Calibri-Bold-6d" x="60.595703"/>
     <use xlink:href="#Calibri-Bold-6f" x="141.943359"/>
     <use xlink:href="#Calibri-Bold-75" x="195.703125"/>
     <use xlink:href="#Calibri-Bold-6e" x="249.365234"/>
     <use xlink:href="#Calibri-Bold-74" x="303.027344"/>
     <use xlink:href="#Calibri-Bold-20" x="337.695312"/>
     <use xlink:href="#Calibri-Bold-6f" x="360.302734"/>
     <use xlink:href="#Calibri-Bold-66" x="414.0625"/>
     <use xlink:href="#Calibri-Bold-20" x="445.703125"/>
     <use xlink:href="#Calibri-Bold-6c" x="468.310547"/>
     <use xlink:href="#Calibri-Bold-61" x="492.871094"/>
     <use xlink:href="#Calibri-Bold-6e" x="542.236328"/>
     <use xlink:href="#Calibri-Bold-64" x="595.898438"/>
     <use xlink:href="#Calibri-Bold-20" x="649.560547"/>
     <use xlink:href="#Calibri-Bold-70" x="672.167969"/>
     <use xlink:href="#Calibri-Bold-72" x="725.830078"/>
     <use xlink:href="#Calibri-Bold-65" x="761.376953"/>
     <use xlink:href="#Calibri-Bold-6d" x="811.71875"/>
     <use xlink:href="#Calibri-Bold-69" x="893.066406"/>
     <use xlink:href="#Calibri-Bold-75" x="917.626953"/>
     <use xlink:href="#Calibri-Bold-6d" x="971.289062"/>
     <use xlink:href="#Calibri-Bold-20" x="1052.636719"/>
     <use xlink:href="#Calibri-Bold-70" x="1075.244141"/>
     <use xlink:href="#Calibri-Bold-61" x="1128.90625"/>
     <use xlink:href="#Calibri-Bold-69" x="1178.271484"/>
     <use xlink:href="#Calibri-Bold-64" x="1202.832031"/>
     <use xlink:href="#Calibri-Bold-20" x="1256.494141"/>
     <use xlink:href="#Calibri-Bold-62" x="1279.101562"/>
     <use xlink:href="#Calibri-Bold-79" x="1332.763672"/>
     <use xlink:href="#Calibri-Bold-20" x="1380.126953"/>
     <use xlink:href="#Calibri-Bold-64" x="1402.734375"/>
     <use xlink:href="#Calibri-Bold-65" x="1456.396484"/>
     <use xlink:href="#Calibri-Bold-76" x="1506.738281"/>
     <use xlink:href="#Calibri-Bold-65" x="1554.052734"/>
     <use xlink:href="#Calibri-Bold-6c" x="1604.394531"/>
     <use xlink:href="#Calibri-Bold-6f" x="1628.955078"/>
     <use xlink:href="#Calibri-Bold-70" x="1682.714844"/>
     <use xlink:href="#Calibri-Bold-65" x="1736.376953"/>
     <use xlink:href="#Calibri-Bold-72" x="1786.71875"/>
     <use xlink:href="#Calibri-Bold-73" x="1822.265625"/>
    </g>
   </g>
   <g id="text_15">
    <!-- 2011-12 -->
    <g transform="translate(77.456 330.564)scale(0.09 -0.09)">
     <defs>
      <path id="DejaVuSans-Bold-2d" d="M 347 2297 
L 2309 2297 
L 2309 1388 
L 347 1388 
L 347 2297 
z
" transform="scale(0.015625)"/>
     </defs>
     <use xlink:href="#DejaVuSans-Bold-32"/>
     <use xlink:href="#DejaVuSans-Bold-30" x="69.580078"/>
     <use xlink:href="#DejaVuSans-Bold-31" x="139.160156"/>
     <use xlink:href="#DejaVuSans-Bold-31" x="208.740234"/>
     <use xlink:href="#DejaVuSans-Bold-2d" x="278.320312"/>
     <use xlink:href="#DejaVuSans-Bold-31" x="319.824219"/>
     <use xlink:href="#DejaVuSans-Bold-32" x="389.404297"/>
    </g>
   </g>
   <g id="text_16">
    <!-- 2012-13 -->
    <g transform="translate(127.056 330.564)scale(0.09 -0.09)">
     <use xlink:href="#DejaVuSans-Bold-32"/>
     <use xlink:href="#DejaVuSans-Bold-30" x="69.580078"/>
     <use xlink:href="#DejaVuSans-Bold-31" x="139.160156"/>
     <use xlink:href="#DejaVuSans-Bold-32" x="208.740234"/>
     <use xlink:href="#DejaVuSans-Bold-2d" x="278.320312"/>
     <use xlink:href="#DejaVuSans-Bold-31" x="319.824219"/>
     <use xlink:href="#DejaVuSans-Bold-33" x="389.404297"/>
    </g>
   </g>
   <g id="text_17">
    <!-- 2013-14 -->
    <g transform="translate(176.656 330.564)scale(0.09 -0.09)">
     <defs>
      <path id="DejaVuSans-Bold-34" d="M 2356 3675 
L 1038 1722 
L 2356 1722 
L 2356 3675 
z
M 2156 4666 
L 3494 4666 
L 3494 1722 
L 4159 1722 
L 4159 850 
L 3494 850 
L 3494 0 
L 2356 0 
L 2356 850 
L 288 850 
L 288 1881 
L 2156 4666 
z
" transform="scale(0.015625)"/>
     </defs>
     <use xlink:href="#DejaVuSans-Bold-32"/>
     <use xlink:href="#DejaVuSans-Bold-30" x="69.580078"/>
     <use xlink:href="#DejaVuSans-Bold-31" x="139.160156"/>
     <use xlink:href="#DejaVuSans-Bold-33" x="208.740234"/>
     <use xlink:href="#DejaVuSans-Bold-2d" x="278.320312"/>
     <use xlink:href="#DejaVuSans-Bold-31" x="319.824219"/>
     <use xlink:href="#DejaVuSans-Bold-34" x="389.404297"/>
    </g>
   </g>
   <g id="text_18">
    <!-- 2014-15 -->
    <g transform="translate(226.256 330.564)scale(0.09 -0.09)">
     <use xlink:href="#DejaVuSans-Bold-32"/>
     <use xlink:href="#DejaVuSans-Bold-30" x="69.580078"/>
     <use xlink:href="#DejaVuSans-Bold-31" x="139.160156"/>
     <use xlink:href="#DejaVuSans-Bold-34" x="208.740234"/>
     <use xlink:href="#DejaVuSans-Bold-2d" x="278.320312"/>
     <use xlink:href="#DejaVuSans-Bold-31" x="319.824219"/>
     <use xlink:href="#DejaVuSans-Bold-35" x="389.404297"/>
    </g>
   </g>
   <g id="text_19">
    <!-- 2015-16 -->
    <g transform="translate(275.856 330.564)scale(0.09 -0.09)">
     <defs>
      <path id="DejaVuSans-Bold-36" d="M 2316 2303 
Q 2000 2303 1842 2098 
Q 1684 1894 1684 1484 
Q 1684 1075 1842 870 
Q 2000 666 2316 666 
Q 2634 666 2792 870 
Q 2950 1075 2950 1484 
Q 2950 1894 2792 2098 
Q 2634 2303 2316 2303 
z
M 3803 4544 
L 3803 3681 
Q 3506 3822 3243 3889 
Q 2981 3956 2731 3956 
Q 2194 3956 1894 3657 
Q 1594 3359 1544 2772 
Q 1750 2925 1990 3001 
Q 2231 3078 2516 3078 
Q 3231 3078 3670 2659 
Q 4109 2241 4109 1563 
Q 4109 813 3618 361 
Q 3128 -91 2303 -91 
Q 1394 -91 895 523 
Q 397 1138 397 2266 
Q 397 3422 980 4083 
Q 1563 4744 2578 4744 
Q 2900 4744 3203 4694 
Q 3506 4644 3803 4544 
z
" transform="scale(0.015625)"/>
     </defs>
     <use xlink:href="#DejaVuSans-Bold-32"/>
     <use xlink:href="#DejaVuSans-Bold-30" x="69.580078"/>
     <use xlink:href="#DejaVuSans-Bold-31" x="139.160156"/>
     <use xlink:href="#DejaVuSans-Bold-35" x="208.740234"/>
     <use xlink:href="#DejaVuSans-Bold-2d" x="278.320312"/>
     <use xlink:href="#DejaVuSans-Bold-31" x="319.824219"/>
     <use xlink:href="#DejaVuSans-Bold-36" x="389.404297"/>
    </g>
   </g>
   <g id="text_20">
    <!-- 2016-17 -->
    <g transform="translate(325.456 330.564)scale(0.09 -0.09)">
     <defs>
      <path id="DejaVuSans-Bold-37" d="M 428 4666 
L 3944 4666 
L 3944 3988 
L 2125 0 
L 953 0 
L 2675 3781 
L 428 3781 
L 428 4666 
z
" transform="scale(0.015625)"/>
     </defs>
     <use xlink:href="#DejaVuSans-Bold-32"/>
     <use xlink:href="#DejaVuSans-Bold-30" x="69.580078"/>
     <use xlink:href="#DejaVuSans-Bold-31" x="139.160156"/>
     <use xlink:href="#DejaVuSans-Bold-36" x="208.740234"/>
     <use xlink:href="#DejaVuSans-Bold-2d" x="278.320312"/>
     <use xlink:href="#DejaVuSans-Bold-31" x="319.824219"/>
     <use xlink:href="#DejaVuSans-Bold-37" x="389.404297"/>
    </g>
   </g>
   <g id="text_21">
    <!-- 2017-18 -->
    <g transform="translate(375.056 330.564)scale(0.09 -0.09)">
     <defs>
      <path id="DejaVuSans-Bold-38" d="M 2228 2088 
Q 1891 2088 1709 1903 
Q 1528 1719 1528 1375 
Q 1528 1031 1709 848 
Q 1891 666 2228 666 
Q 2563 666 2741 848 
Q 2919 1031 2919 1375 
Q 2919 1722 2741 1905 
Q 2563 2088 2228 2088 
z
M 1350 2484 
Q 925 2613 709 2878 
Q 494 3144 494 3541 
Q 494 4131 934 4440 
Q 1375 4750 2228 4750 
Q 3075 4750 3515 4442 
Q 3956 4134 3956 3541 
Q 3956 3144 3739 2878 
Q 3522 2613 3097 2484 
Q 3572 2353 3814 2058 
Q 4056 1763 4056 1313 
Q 4056 619 3595 264 
Q 3134 -91 2228 -91 
Q 1319 -91 855 264 
Q 391 619 391 1313 
Q 391 1763 633 2058 
Q 875 2353 1350 2484 
z
M 1631 3419 
Q 1631 3141 1786 2991 
Q 1941 2841 2228 2841 
Q 2509 2841 2662 2991 
Q 2816 3141 2816 3419 
Q 2816 3697 2662 3845 
Q 2509 3994 2228 3994 
Q 1941 3994 1786 3844 
Q 1631 3694 1631 3419 
z
" transform="scale(0.015625)"/>
     </defs>
     <use xlink:href="#DejaVuSans-Bold-32"/>
     <use xlink:href="#DejaVuSans-Bold-30" x="69.580078"/>
     <use xlink:href="#DejaVuSans-Bold-31" x="139.160156"/>
     <use xlink:href="#DejaVuSans-Bold-37" x="208.740234"/>
     <use xlink:href="#DejaVuSans-Bold-2d" x="278.320312"/>
     <use xlink:href="#DejaVuSans-Bold-31" x="319.824219"/>
     <use xlink:href="#DejaVuSans-Bold-38" x="389.404297"/>
    </g>
   </g>
   <g id="text_22">
    <!-- 2018-19 -->
    <g transform="translate(424.656 330.564)scale(0.09 -0.09)">
     <defs>
      <path id="DejaVuSans-Bold-39" d="M 641 103 
L 641 966 
Q 928 831 1190 764 
Q 1453 697 1709 697 
Q 2247 697 2547 995 
Q 2847 1294 2900 1881 
Q 2688 1725 2447 1647 
Q 2206 1569 1925 1569 
Q 1209 1569 770 1986 
Q 331 2403 331 3084 
Q 331 3838 820 4291 
Q 1309 4744 2131 4744 
Q 3044 4744 3544 4128 
Q 4044 3513 4044 2388 
Q 4044 1231 3459 570 
Q 2875 -91 1856 -91 
Q 1528 -91 1228 -42 
Q 928 6 641 103 
z
M 2125 2350 
Q 2441 2350 2600 2554 
Q 2759 2759 2759 3169 
Q 2759 3575 2600 3781 
Q 2441 3988 2125 3988 
Q 1809 3988 1650 3781 
Q 1491 3575 1491 3169 
Q 1491 2759 1650 2554 
Q 1809 2350 2125 2350 
z
" transform="scale(0.015625)"/>
     </defs>
     <use xlink:href="#DejaVuSans-Bold-32"/>
     <use xlink:href="#DejaVuSans-Bold-30" x="69.580078"/>
     <use xlink:href="#DejaVuSans-Bold-31" x="139.160156"/>
     <use xlink:href="#DejaVuSans-Bold-38" x="208.740234"/>
     <use xlink:href="#DejaVuSans-Bold-2d" x="278.320312"/>
     <use xlink:href="#DejaVuSans-Bold-31" x="319.824219"/>
     <use xlink:href="#DejaVuSans-Bold-39" x="389.404297"/>
    </g>
   </g>
   <g id="text_23">
    <!-- 2019-20 -->
    <g transform="translate(474.256 330.564)scale(0.09 -0.09)">
     <use xlink:href="#DejaVuSans-Bold-32"/>
     <use xlink:href="#DejaVuSans-Bold-30" x="69.580078"/>
     <use xlink:href="#DejaVuSans-Bold-31" x="139.160156"/>
     <use xlink:href="#DejaVuSans-Bold-39" x="208.740234"/>
     <use xlink:href="#DejaVuSans-Bold-2d" x="278.320312"/>
     <use xlink:href="#DejaVuSans-Bold-32" x="319.824219"/>
     <use xlink:href="#DejaVuSans-Bold-30" x="389.404297"/>
    </g>
   </g>
   <g id="text_24">
    <!-- 84.6 -->
    <g style="fill: #ffffff" transform="translate(84.4 301.92)scale(0.1 -0.1)">
     <defs>
      <path id="DejaVuSans-Bold-2e" d="M 653 1209 
L 1778 1209 
L 1778 0 
L 653 0 
L 653 1209 
z
" transform="scale(0.015625)"/>
     </defs>
     <use xlink:href="#DejaVuSans-Bold-38"/>
     <use xlink:href="#DejaVuSans-Bold-34" x="69.580078"/>
     <use xlink:href="#DejaVuSans-Bold-2e" x="139.160156"/>
     <use xlink:href="#DejaVuSans-Bold-36" x="177.148438"/>
    </g>
   </g>
   <g id="text_25">
    <!-- 69.6 -->
    <g style="fill: #ffffff" transform="translate(134 301.92)scale(0.1 -0.1)">
     <use xlink:href="#DejaVuSans-Bold-36"/>
     <use xlink:href="#DejaVuSans-Bold-39" x="69.580078"/>
     <use xlink:href="#DejaVuSans-Bold-2e" x="139.160156"/>
     <use xlink:href="#DejaVuSans-Bold-36" x="177.148438"/>
    </g>
   </g>
   <g id="text_26">
    <!-- 84.3 -->
    <g style="fill: #ffffff" transform="translate(183.6 301.92)scale(0.1 -0.1)">
     <use xlink:href="#DejaVuSans-Bold-38"/>
     <use xlink:href="#DejaVuSans-Bold-34" x="69.580078"/>
     <use xlink:href="#DejaVuSans-Bold-2e" x="139.160156"/>
     <use xlink:href="#DejaVuSans-Bold-33" x="177.148438"/>
    </g>
   </g>
   <g id="text_27">
    <!-- 77.8 -->
    <g style="fill: #ffffff" transform="translate(233.2 301.92)scale(0.1 -0.1)">
     <use xlink:href="#DejaVuSans-Bold-37"/>
     <use xlink:href="#DejaVuSans-Bold-37" x="69.580078"/>
     <use xlink:href="#DejaVuSans-Bold-2e" x="139.160156"/>
     <use xlink:href="#DejaVuSans-Bold-38" x="177.148438"/>
    </g>
   </g>
   <g id="text_28">
    <!-- 60.9 -->
    <g style="fill: #ffffff" transform="translate(282.8 301.92)scale(0.1 -0.1)">
     <use xlink:href="#DejaVuSans-Bold-36"/>
     <use xlink:href="#DejaVuSans-Bold-30" x="69.580078"/>
     <use xlink:href="#DejaVuSans-Bold-2e" x="139.160156"/>
     <use xlink:href="#DejaVuSans-Bold-39" x="177.148438"/>
    </g>
   </g>
   <g id="text_29">
    <!-- 128 -->
    <g style="fill: #ffffff" transform="translate(334.88 301.92)scale(0.1 -0.1)">
     <use xlink:href="#DejaVuSans-Bold-31"/>
     <use xlink:href="#DejaVuSans-Bold-32" x="69.580078"/>
     <use xlink:href="#DejaVuSans-Bold-38" x="139.160156"/>
    </g>
   </g>
   <g id="text_30">
    <!-- 164.8 -->
    <g style="fill: #ffffff" transform="translate(378.528 301.92)scale(0.1 -0.1)">
     <use xlink:href="#DejaVuSans-Bold-31"/>
     <use xlink:href="#DejaVuSans-Bold-36" x="69.580078"/>
     <use xlink:href="#DejaVuSans-Bold-34" x="139.160156"/>
     <use xlink:href="#DejaVuSans-Bold-2e" x="208.740234"/>
     <use xlink:href="#DejaVuSans-Bold-38" x="246.728516"/>
    </g>
   </g>
   <g id="text_31">
    <!-- 116.9 -->
    <g style="fill: #ffffff" transform="translate(428.128 301.92)scale(0.1 -0.1)">
     <use xlink:href="#DejaVuSans-Bold-31"/>
     <use xlink:href="#DejaVuSans-Bold-31" x="69.580078"/>
     <use xlink:href="#DejaVuSans-Bold-36" x="139.160156"/>
     <use xlink:href="#DejaVuSans-Bold-2e" x="208.740234"/>
     <use xlink:href="#DejaVuSans-Bold-39" x="246.728516"/>
    </g>
   </g>
   <g id="text_32">
    <!-- 141.7 -->
    <g style="fill: #ffffff" transform="translate(477.728 301.92)scale(0.1 -0.1)">
     <use xlink:href="#DejaVuSans-Bold-31"/>
     <use xlink:href="#DejaVuSans-Bold-34" x="69.580078"/>
     <use xlink:href="#DejaVuSans-Bold-31" x="139.160156"/>
     <use xlink:href="#DejaVuSans-Bold-2e" x="208.740234"/>
     <use xlink:href="#DejaVuSans-Bold-37" x="246.728516"/>
    </g>
   </g>
   <g id="text_33">
    <!-- 19.3% -->
    <g style="fill: #c23428" transform="translate(86.88 132.828)scale(0.1 -0.1)">
     <defs>
      <path id="DejaVuSans-Bold-25" d="M 4959 1925 
Q 4738 1925 4616 1733 
Q 4494 1541 4494 1184 
Q 4494 825 4614 633 
Q 4734 441 4959 441 
Q 5184 441 5303 633 
Q 5422 825 5422 1184 
Q 5422 1541 5301 1733 
Q 5181 1925 4959 1925 
z
M 4959 2450 
Q 5541 2450 5875 2112 
Q 6209 1775 6209 1184 
Q 6209 594 5875 251 
Q 5541 -91 4959 -91 
Q 4378 -91 4042 251 
Q 3706 594 3706 1184 
Q 3706 1772 4042 2111 
Q 4378 2450 4959 2450 
z
M 2094 -91 
L 1403 -91 
L 4319 4750 
L 5013 4750 
L 2094 -91 
z
M 1453 4750 
Q 2034 4750 2367 4411 
Q 2700 4072 2700 3481 
Q 2700 2891 2367 2550 
Q 2034 2209 1453 2209 
Q 872 2209 539 2550 
Q 206 2891 206 3481 
Q 206 4072 539 4411 
Q 872 4750 1453 4750 
z
M 1453 4225 
Q 1228 4225 1106 4031 
Q 984 3838 984 3481 
Q 984 3122 1106 2926 
Q 1228 2731 1453 2731 
Q 1678 2731 1798 2926 
Q 1919 3122 1919 3481 
Q 1919 3838 1797 4031 
Q 1675 4225 1453 4225 
z
" transform="scale(0.015625)"/>
     </defs>
     <use xlink:href="#DejaVuSans-Bold-31"/>
     <use xlink:href="#DejaVuSans-Bold-39" x="69.580078"/>
     <use xlink:href="#DejaVuSans-Bold-2e" x="139.160156"/>
     <use xlink:href="#DejaVuSans-Bold-33" x="177.148438"/>
     <use xlink:href="#DejaVuSans-Bold-25" x="246.728516"/>
    </g>
   </g>
   <g id="text_34">
    <!-- 15.7% -->
    <g style="fill: #c23428" transform="translate(136.48 166.092)scale(0.1 -0.1)">
     <use xlink:href="#DejaVuSans-Bold-31"/>
     <use xlink:href="#DejaVuSans-Bold-35" x="69.580078"/>
     <use xlink:href="#DejaVuSans-Bold-2e" x="139.160156"/>
     <use xlink:href="#DejaVuSans-Bold-37" x="177.148438"/>
     <use xlink:href="#DejaVuSans-Bold-25" x="246.728516"/>
    </g>
   </g>
   <g id="text_35">
    <!-- 18.5% -->
    <g style="fill: #c23428" transform="translate(186.08 140.22)scale(0.1 -0.1)">
     <use xlink:href="#DejaVuSans-Bold-31"/>
     <use xlink:href="#DejaVuSans-Bold-38" x="69.580078"/>
     <use xlink:href="#DejaVuSans-Bold-2e" x="139.160156"/>
     <use xlink:href="#DejaVuSans-Bold-35" x="177.148438"/>
     <use xlink:href="#DejaVuSans-Bold-25" x="246.728516"/>
    </g>
   </g>
   <g id="text_36">
    <!-- 16.3% -->
    <g style="fill: #c23428" transform="translate(235.68 160.548)scale(0.1 -0.1)">
     <use xlink:href="#DejaVuSans-Bold-31"/>
     <use xlink:href="#DejaVuSans-Bold-36" x="69.580078"/>
     <use xlink:href="#DejaVuSans-Bold-2e" x="139.160156"/>
     <use xlink:href="#DejaVuSans-Bold-33" x="177.148438"/>
     <use xlink:href="#DejaVuSans-Bold-25" x="246.728516"/>
    </g>
   </g>
   <g id="text_37">
    <!-- 13.5% -->
    <g style="fill: #c23428" transform="translate(285.28 214.14)scale(0.1 -0.1)">
     <use xlink:href="#DejaVuSans-Bold-31"/>
     <use xlink:href="#DejaVuSans-Bold-33" x="69.580078"/>
     <use xlink:href="#DejaVuSans-Bold-2e" x="139.160156"/>
     <use xlink:href="#DejaVuSans-Bold-35" x="177.148438"/>
     <use xlink:href="#DejaVuSans-Bold-25" x="246.728516"/>
    </g>
   </g>
   <g id="text_38">
    <!-- 22.3% -->
    <g style="fill: #c23428" transform="translate(324.96 100.488)scale(0.1 -0.1)">
     <use xlink:href="#DejaVuSans-Bold-32"/>
     <use xlink:href="#DejaVuSans-Bold-32" x="69.580078"/>
     <use xlink:href="#DejaVuSans-Bold-2e" x="139.160156"/>
     <use xlink:href="#DejaVuSans-Bold-33" x="177.148438"/>
     <use xlink:href="#DejaVuSans-Bold-25" x="246.728516"/>
    </g>
   </g>
   <g id="text_39">
    <!-- 26.6% -->
    <g style="fill: #c23428" transform="translate(384.48 65.376)scale(0.1 -0.1)">
     <use xlink:href="#DejaVuSans-Bold-32"/>
     <use xlink:href="#DejaVuSans-Bold-36" x="69.580078"/>
     <use xlink:href="#DejaVuSans-Bold-2e" x="139.160156"/>
     <use xlink:href="#DejaVuSans-Bold-36" x="177.148438"/>
     <use xlink:href="#DejaVuSans-Bold-25" x="246.728516"/>
    </g>
   </g>
   <g id="text_40">
    <!-- 19.5% -->
    <g style="fill: #c23428" transform="translate(434.08 112.5)scale(0.1 -0.1)">
     <use xlink:href="#DejaVuSans-Bold-31"/>
     <use xlink:href="#DejaVuSans-Bold-39" x="69.580078"/>
     <use xlink:href="#DejaVuSans-Bold-2e" x="139.160156"/>
     <use xlink:href="#DejaVuSans-Bold-35" x="177.148438"/>
     <use xlink:href="#DejaVuSans-Bold-25" x="246.728516"/>
    </g>
   </g>
   <g id="text_41">
    <!-- 24% -->
    <g style="fill: #c23428" transform="translate(483.68 89.4)scale(0.1 -0.1)">
     <use xlink:href="#DejaVuSans-Bold-32"/>
     <use xlink:href="#DejaVuSans-Bold-34" x="69.580078"/>
     <use xlink:href="#DejaVuSans-Bold-25" x="139.160156"/>
    </g>
   </g>
   <g id="text_42">
    <!-- % -->
    <g style="fill: #c23428" transform="translate(521.315812 37.2)scale(0.12 -0.12)">
     <use xlink:href="#DejaVuSans-Bold-25"/>
    </g>
   </g>
   <g id="legend_1">
    <g id="patch_18">
     <path d="M 79 93.598125 
L 281.71875 93.598125 
Q 283.71875 93.598125 283.71875 91.598125 
L 283.71875 77.92 
Q 283.71875 75.92 281.71875 75.92 
L 79 75.92 
Q 77 75.92 77 77.92 
L 77 91.598125 
Q 77 93.598125 79 93.598125 
L 79 93.598125 
z
" style="fill: none; opacity: 0"/>
    </g>
    <g id="line2d_24">
     <path d="M 81 84.018438 
L 91 84.018438 
L 101 84.018438 
" style="fill: none; stroke: #c23428; stroke-width: 5; stroke-linecap: square"/>
     <g>
      <use xlink:href="#m83b0c2abd0" x="91" y="84.018438" style="fill: #ffffff; stroke: #c23428"/>
     </g>
    </g>
    <g id="text_43">
     <!--  % of total HK goverment revenue -->
     <g transform="translate(109 87.518438)scale(0.1 -0.1)">
      <defs>
       <path id="DejaVuSans-20" transform="scale(0.015625)"/>
       <path id="DejaVuSans-25" d="M 4653 2053 
Q 4381 2053 4226 1822 
Q 4072 1591 4072 1178 
Q 4072 772 4226 539 
Q 4381 306 4653 306 
Q 4919 306 5073 539 
Q 5228 772 5228 1178 
Q 5228 1588 5073 1820 
Q 4919 2053 4653 2053 
z
M 4653 2450 
Q 5147 2450 5437 2106 
Q 5728 1763 5728 1178 
Q 5728 594 5436 251 
Q 5144 -91 4653 -91 
Q 4153 -91 3862 251 
Q 3572 594 3572 1178 
Q 3572 1766 3864 2108 
Q 4156 2450 4653 2450 
z
M 1428 4353 
Q 1159 4353 1004 4120 
Q 850 3888 850 3481 
Q 850 3069 1003 2837 
Q 1156 2606 1428 2606 
Q 1700 2606 1854 2837 
Q 2009 3069 2009 3481 
Q 2009 3884 1853 4118 
Q 1697 4353 1428 4353 
z
M 4250 4750 
L 4750 4750 
L 1831 -91 
L 1331 -91 
L 4250 4750 
z
M 1428 4750 
Q 1922 4750 2215 4408 
Q 2509 4066 2509 3481 
Q 2509 2891 2217 2550 
Q 1925 2209 1428 2209 
Q 931 2209 642 2551 
Q 353 2894 353 3481 
Q 353 4063 643 4406 
Q 934 4750 1428 4750 
z
" transform="scale(0.015625)"/>
       <path id="DejaVuSans-6f" d="M 1959 3097 
Q 1497 3097 1228 2736 
Q 959 2375 959 1747 
Q 959 1119 1226 758 
Q 1494 397 1959 397 
Q 2419 397 2687 759 
Q 2956 1122 2956 1747 
Q 2956 2369 2687 2733 
Q 2419 3097 1959 3097 
z
M 1959 3584 
Q 2709 3584 3137 3096 
Q 3566 2609 3566 1747 
Q 3566 888 3137 398 
Q 2709 -91 1959 -91 
Q 1206 -91 779 398 
Q 353 888 353 1747 
Q 353 2609 779 3096 
Q 1206 3584 1959 3584 
z
" transform="scale(0.015625)"/>
       <path id="DejaVuSans-66" d="M 2375 4863 
L 2375 4384 
L 1825 4384 
Q 1516 4384 1395 4259 
Q 1275 4134 1275 3809 
L 1275 3500 
L 2222 3500 
L 2222 3053 
L 1275 3053 
L 1275 0 
L 697 0 
L 697 3053 
L 147 3053 
L 147 3500 
L 697 3500 
L 697 3744 
Q 697 4328 969 4595 
Q 1241 4863 1831 4863 
L 2375 4863 
z
" transform="scale(0.015625)"/>
       <path id="DejaVuSans-74" d="M 1172 4494 
L 1172 3500 
L 2356 3500 
L 2356 3053 
L 1172 3053 
L 1172 1153 
Q 1172 725 1289 603 
Q 1406 481 1766 481 
L 2356 481 
L 2356 0 
L 1766 0 
Q 1100 0 847 248 
Q 594 497 594 1153 
L 594 3053 
L 172 3053 
L 172 3500 
L 594 3500 
L 594 4494 
L 1172 4494 
z
" transform="scale(0.015625)"/>
       <path id="DejaVuSans-61" d="M 2194 1759 
Q 1497 1759 1228 1600 
Q 959 1441 959 1056 
Q 959 750 1161 570 
Q 1363 391 1709 391 
Q 2188 391 2477 730 
Q 2766 1069 2766 1631 
L 2766 1759 
L 2194 1759 
z
M 3341 1997 
L 3341 0 
L 2766 0 
L 2766 531 
Q 2569 213 2275 61 
Q 1981 -91 1556 -91 
Q 1019 -91 701 211 
Q 384 513 384 1019 
Q 384 1609 779 1909 
Q 1175 2209 1959 2209 
L 2766 2209 
L 2766 2266 
Q 2766 2663 2505 2880 
Q 2244 3097 1772 3097 
Q 1472 3097 1187 3025 
Q 903 2953 641 2809 
L 641 3341 
Q 956 3463 1253 3523 
Q 1550 3584 1831 3584 
Q 2591 3584 2966 3190 
Q 3341 2797 3341 1997 
z
" transform="scale(0.015625)"/>
       <path id="DejaVuSans-6c" d="M 603 4863 
L 1178 4863 
L 1178 0 
L 603 0 
L 603 4863 
z
" transform="scale(0.015625)"/>
       <path id="DejaVuSans-48" d="M 628 4666 
L 1259 4666 
L 1259 2753 
L 3553 2753 
L 3553 4666 
L 4184 4666 
L 4184 0 
L 3553 0 
L 3553 2222 
L 1259 2222 
L 1259 0 
L 628 0 
L 628 4666 
z
" transform="scale(0.015625)"/>
       <path id="DejaVuSans-4b" d="M 628 4666 
L 1259 4666 
L 1259 2694 
L 3353 4666 
L 4166 4666 
L 1850 2491 
L 4331 0 
L 3500 0 
L 1259 2247 
L 1259 0 
L 628 0 
L 628 4666 
z
" transform="scale(0.015625)"/>
       <path id="DejaVuSans-67" d="M 2906 1791 
Q 2906 2416 2648 2759 
Q 2391 3103 1925 3103 
Q 1463 3103 1205 2759 
Q 947 2416 947 1791 
Q 947 1169 1205 825 
Q 1463 481 1925 481 
Q 2391 481 2648 825 
Q 2906 1169 2906 1791 
z
M 3481 434 
Q 3481 -459 3084 -895 
Q 2688 -1331 1869 -1331 
Q 1566 -1331 1297 -1286 
Q 1028 -1241 775 -1147 
L 775 -588 
Q 1028 -725 1275 -790 
Q 1522 -856 1778 -856 
Q 2344 -856 2625 -561 
Q 2906 -266 2906 331 
L 2906 616 
Q 2728 306 2450 153 
Q 2172 0 1784 0 
Q 1141 0 747 490 
Q 353 981 353 1791 
Q 353 2603 747 3093 
Q 1141 3584 1784 3584 
Q 2172 3584 2450 3431 
Q 2728 3278 2906 2969 
L 2906 3500 
L 3481 3500 
L 3481 434 
z
" transform="scale(0.015625)"/>
       <path id="DejaVuSans-76" d="M 191 3500 
L 800 3500 
L 1894 563 
L 2988 3500 
L 3597 3500 
L 2284 0 
L 1503 0 
L 191 3500 
z
" transform="scale(0.015625)"/>
       <path id="DejaVuSans-65" d="M 3597 1894 
L 3597 1613 
L 953 1613 
Q 991 1019 1311 708 
Q 1631 397 2203 397 
Q 2534 397 2845 478 
Q 3156 559 3463 722 
L 3463 178 
Q 3153 47 2828 -22 
Q 2503 -91 2169 -91 
Q 1331 -91 842 396 
Q 353 884 353 1716 
Q 353 2575 817 3079 
Q 1281 3584 2069 3584 
Q 2775 3584 3186 3129 
Q 3597 2675 3597 1894 
z
M 3022 2063 
Q 3016 2534 2758 2815 
Q 2500 3097 2075 3097 
Q 1594 3097 1305 2825 
Q 1016 2553 972 2059 
L 3022 2063 
z
" transform="scale(0.015625)"/>
       <path id="DejaVuSans-72" d="M 2631 2963 
Q 2534 3019 2420 3045 
Q 2306 3072 2169 3072 
Q 1681 3072 1420 2755 
Q 1159 2438 1159 1844 
L 1159 0 
L 581 0 
L 581 3500 
L 1159 3500 
L 1159 2956 
Q 1341 3275 1631 3429 
Q 1922 3584 2338 3584 
Q 2397 3584 2469 3576 
Q 2541 3569 2628 3553 
L 2631 2963 
z
" transform="scale(0.015625)"/>
       <path id="DejaVuSans-6d" d="M 3328 2828 
Q 3544 3216 3844 3400 
Q 4144 3584 4550 3584 
Q 5097 3584 5394 3201 
Q 5691 2819 5691 2113 
L 5691 0 
L 5113 0 
L 5113 2094 
Q 5113 2597 4934 2840 
Q 4756 3084 4391 3084 
Q 3944 3084 3684 2787 
Q 3425 2491 3425 1978 
L 3425 0 
L 2847 0 
L 2847 2094 
Q 2847 2600 2669 2842 
Q 2491 3084 2119 3084 
Q 1678 3084 1418 2786 
Q 1159 2488 1159 1978 
L 1159 0 
L 581 0 
L 581 3500 
L 1159 3500 
L 1159 2956 
Q 1356 3278 1631 3431 
Q 1906 3584 2284 3584 
Q 2666 3584 2933 3390 
Q 3200 3197 3328 2828 
z
" transform="scale(0.015625)"/>
       <path id="DejaVuSans-6e" d="M 3513 2113 
L 3513 0 
L 2938 0 
L 2938 2094 
Q 2938 2591 2744 2837 
Q 2550 3084 2163 3084 
Q 1697 3084 1428 2787 
Q 1159 2491 1159 1978 
L 1159 0 
L 581 0 
L 581 3500 
L 1159 3500 
L 1159 2956 
Q 1366 3272 1645 3428 
Q 1925 3584 2291 3584 
Q 2894 3584 3203 3211 
Q 3513 2838 3513 2113 
z
" transform="scale(0.015625)"/>
       <path id="DejaVuSans-75" d="M 544 1381 
L 544 3500 
L 1119 3500 
L 1119 1403 
Q 1119 906 1312 657 
Q 1506 409 1894 409 
Q 2359 409 2629 706 
Q 2900 1003 2900 1516 
L 2900 3500 
L 3475 3500 
L 3475 0 
L 2900 0 
L 2900 538 
Q 2691 219 2414 64 
Q 2138 -91 1772 -91 
Q 1169 -91 856 284 
Q 544 659 544 1381 
z
M 1991 3584 
L 1991 3584 
z
" transform="scale(0.015625)"/>
      </defs>
      <use xlink:href="#DejaVuSans-20"/>
      <use xlink:href="#DejaVuSans-25" x="31.787109"/>
      <use xlink:href="#DejaVuSans-20" x="126.806641"/>
      <use xlink:href="#DejaVuSans-6f" x="158.59375"/>
      <use xlink:href="#DejaVuSans-66" x="219.775391"/>
      <use xlink:href="#DejaVuSans-20" x="254.980469"/>
      <use xlink:href="#DejaVuSans-74" x="286.767578"/>
      <use xlink:href="#DejaVuSans-6f" x="325.976562"/>
      <use xlink:href="#DejaVuSans-74" x="387.158203"/>
      <use xlink:href="#DejaVuSans-61" x="426.367188"/>
      <use xlink:href="#DejaVuSans-6c" x="487.646484"/>
      <use xlink:href="#DejaVuSans-20" x="515.429688"/>
      <use xlink:href="#DejaVuSans-48" x="547.216797"/>
      <use xlink:href="#DejaVuSans-4b" x="622.412109"/>
      <use xlink:href="#DejaVuSans-20" x="687.988281"/>
      <use xlink:href="#DejaVuSans-67" x="719.775391"/>
      <use xlink:href="#DejaVuSans-6f" x="783.251953"/>
      <use xlink:href="#DejaVuSans-76" x="844.433594"/>
      <use xlink:href="#DejaVuSans-65" x="903.613281"/>
      <use xlink:href="#DejaVuSans-72" x="965.136719"/>
      <use xlink:href="#DejaVuSans-6d" x="1004.5"/>
      <use xlink:href="#DejaVuSans-65" x="1101.912109"/>
      <use xlink:href="#DejaVuSans-6e" x="1163.435547"/>
      <use xlink:href="#DejaVuSans-74" x="1226.814453"/>
      <use xlink:href="#DejaVuSans-20" x="1266.023438"/>
      <use xlink:href="#DejaVuSans-72" x="1297.810547"/>
      <use xlink:href="#DejaVuSans-65" x="1336.673828"/>
      <use xlink:href="#DejaVuSans-76" x="1398.197266"/>
      <use xlink:href="#DejaVuSans-65" x="1457.376953"/>
      <use xlink:href="#DejaVuSans-6e" x="1518.900391"/>
      <use xlink:href="#DejaVuSans-75" x="1582.279297"/>
      <use xlink:href="#DejaVuSans-65" x="1645.658203"/>
     </g>
    </g>
   </g>
  </g>
 </g>
 <defs>
  <clipPath id="p0d0f32581b">
   <rect x="72" y="43.2" width="446.4" height="277.2"/>
  </clipPath>
 </defs>
</svg>
